<svg xmlns="http://www.w3.org/2000/svg" xmlns:xlink="http://www.w3.org/1999/xlink" width="49" height="49" viewBox="0 0 49 49"><defs><path id="a" d="M705.96 3455.62h3.85v7.92h-3.85c-.3 1.01-.71 1.99-1.24 2.91l2.72 2.65-5.75 5.6-2.72-2.65c-.95.51-1.96.92-3 1.21v3.74h-8.14v-3.74c-1.04-.29-2.04-.7-2.99-1.21l-2.72 2.65-5.75-5.6 2.72-2.65c-.53-.92-.94-1.9-1.25-2.91H674v-7.92h3.84c.3-1.01.72-1.98 1.25-2.91l-2.72-2.64 5.75-5.6 2.72 2.64c.95-.51 1.95-.9 2.99-1.2v-3.67c-2.62-1.37-4.06-3.63-4.06-6.41a7.95 7.95 0 0 1 5.42-7.46l1.09-.37v6.47l1.62.53 1.63-.53V3428l1.09.37a7.95 7.95 0 0 1 5.42 7.46c0 2.78-1.44 5.04-4.07 6.41v3.67c1.04.29 2.05.69 3 1.2l2.72-2.64 5.75 5.6-2.72 2.64c.53.93.94 1.9 1.24 2.91zM689 3441.04l.46.21v25.88a8.19 8.19 0 0 0 4.89 0v-11.51h1.62v10.81a7.87 7.87 0 0 0 4.07-6.85 7.82 7.82 0 0 0-4.07-6.86v1.32h-1.62v-12.79l.46-.21c2.36-1.09 3.6-2.89 3.6-5.21a6.33 6.33 0 0 0-3.25-5.48v5.26l-3.26 1.06-3.25-1.06v-5.26a6.32 6.32 0 0 0-3.26 5.48c0 2.32 1.25 4.12 3.61 5.21zm19.18 16.17h-3.48l-.16-.61a12.3 12.3 0 0 0-1.53-3.6l-.34-.54 2.47-2.39-3.45-3.36-2.47 2.4-.55-.33c-.85-.51-1.75-.91-2.7-1.22v3.39a9.42 9.42 0 0 1 5.7 8.63c0 5.24-4.38 9.5-9.77 9.5a9.64 9.64 0 0 1-9.76-9.5 9.43 9.43 0 0 1 5.69-8.63v-3.39c-.94.31-1.85.71-2.7 1.22l-.54.33-2.47-2.4-3.45 3.36 2.46 2.39-.33.54a12.2 12.2 0 0 0-1.54 3.6l-.15.61h-3.48v4.75h3.48l.15.6c.32 1.28.84 2.49 1.54 3.61l.33.53-2.46 2.4 3.45 3.36 2.47-2.4.54.33a13.3 13.3 0 0 0 3.71 1.49l.62.15v3.39h4.89v-3.39l.62-.15c1.31-.31 2.55-.81 3.71-1.49l.54-.33 2.47 2.4 3.45-3.36-2.47-2.4.34-.53c.7-1.12 1.22-2.33 1.54-3.61l.15-.6h3.48zm-24.41 2.37a7.88 7.88 0 0 0 4.06 6.85v-13.71a7.84 7.84 0 0 0-4.06 6.86z"/><path id="b" d="M671.76 3469.4c0 1.3-1.07 2.35-2.38 2.35a2.37 2.37 0 0 1-2.38-2.35c0-1.01.67-1.87 1.59-2.2v-28.29a2.37 2.37 0 0 1 2.38-2.35h6.49a2.38 2.38 0 0 1 4.62.79 2.36 2.36 0 0 1-2.38 2.34 2.37 2.37 0 0 1-2.24-1.56h-6.49a.8.8 0 0 0-.8.78v28.29a2.35 2.35 0 0 1 1.59 2.2zm7.14-32.05c0 .43.36.78.8.78.43 0 .79-.35.79-.78a.8.8 0 1 0-1.59 0zm-8.73 32.05a.78.78 0 0 0-.79-.78.78.78 0 1 0 0 1.57c.44 0 .79-.35.79-.79z"/><path id="c" d="M672 3440.88V3439h1.88v1.88z"/><path id="d" d="M672 3445.88V3444h1.88v1.88z"/><path id="e" d="M672 3450.88V3449h1.88v1.88z"/><path id="f" d="M716.08 3469.4c0 1.3-1.07 2.35-2.38 2.35a2.36 2.36 0 0 1-2.38-2.35c0-1.01.66-1.87 1.58-2.2v-28.29a.78.78 0 0 0-.79-.78h-6.49a2.38 2.38 0 0 1-2.24 1.56 2.36 2.36 0 0 1-2.38-2.34c0-1.3 1.07-2.35 2.38-2.35a2.4 2.4 0 0 1 2.24 1.56h6.49a2.37 2.37 0 0 1 2.38 2.35v28.29a2.36 2.36 0 0 1 1.59 2.2zm-11.91-32.05a.79.79 0 0 0-.79-.79.79.79 0 1 0 0 1.57c.44 0 .79-.35.79-.78zm10.32 32.05a.79.79 0 0 0-.79-.78.8.8 0 0 0-.8.78.8.8 0 0 0 1.59 0z"/><path id="g" d="M709 3440.88V3439h1.88v1.88z"/><path id="h" d="M709 3445.88V3444h1.88v1.88z"/><path id="i" d="M709 3450.88V3449h1.88v1.88z"/><path id="j" d="M692 3466.88V3465h1.88v1.88z"/><path id="k" d="M692 3462.88V3461h1.88v1.88z"/><path id="l" d="M692 3458.88V3457h1.88v1.88z"/></defs><g transform="translate(-667 -3428)"><use fill="#b4cf3d" xlink:href="#a"/></g><g transform="translate(-667 -3428)"><use fill="#b4cf3d" xlink:href="#b"/></g><g transform="translate(-667 -3428)"><use fill="#b4cf3d" xlink:href="#c"/></g><g transform="translate(-667 -3428)"><use fill="#b4cf3d" xlink:href="#d"/></g><g transform="translate(-667 -3428)"><use fill="#b4cf3d" xlink:href="#e"/></g><g transform="translate(-667 -3428)"><use fill="#b4cf3d" xlink:href="#f"/></g><g transform="translate(-667 -3428)"><use fill="#b4cf3d" xlink:href="#g"/></g><g transform="translate(-667 -3428)"><use fill="#b4cf3d" xlink:href="#h"/></g><g transform="translate(-667 -3428)"><use fill="#b4cf3d" xlink:href="#i"/></g><g transform="translate(-667 -3428)"><use fill="#b4cf3d" xlink:href="#j"/></g><g transform="translate(-667 -3428)"><use fill="#b4cf3d" xlink:href="#k"/></g><g transform="translate(-667 -3428)"><use fill="#b4cf3d" xlink:href="#l"/></g></svg>