<svg xmlns="http://www.w3.org/2000/svg" xmlns:xlink="http://www.w3.org/1999/xlink" width="49" height="50" viewBox="0 0 49 50"><defs><path id="a" d="M932.04 3454v22.9c0 .61-.49 1.1-1.09 1.1h-46.86a1.1 1.1 0 0 1-1.09-1.1V3454c0-.6.49-1.1 1.09-1.1h2.4v-4.17c0-.6.48-1.09 1.09-1.09h6.46a13.75 13.75 0 0 1 12.36-10.93v-7.61c0-.61.48-1.1 1.09-1.1h7.69c.6 0 1.09.49 1.09 1.1v5.21c0 .61-.49 1.1-1.09 1.1h-6.61v1.29c2.96.23 5.78 1.41 8.02 3.39a13.9 13.9 0 0 1 4.41 7.55h6.46c.6 0 1.09.49 1.09 1.09v4.17h2.4c.6 0 1.09.5 1.09 1.1zm-23.47-20.79h5.52v-3.01h-5.52zm-12.29 14.43h22.48a11.67 11.67 0 0 0-11.24-8.78c-5.32 0-9.95 3.69-11.24 8.78zm-7.61 5.26h37.7v-3.07h-37.7zm21.31 14.68h-4.92v8.22h4.92zm19.88 8.22v-20.7h-44.68v20.7h13.08v-14.01a1.1 1.1 0 0 1 2.18 0v14.01h2.44v-9.32c0-.61.48-1.1 1.09-1.1h7.1c.6 0 1.09.49 1.09 1.1v9.32h2.44v-14.01a1.1 1.1 0 0 1 2.18 0v14.01z"/><path id="b" d="M916.9 3457.77l-.05-.18c-.03-.05-.05-.11-.09-.16-.03-.06-.07-.1-.12-.15l-.14-.12-.17-.09a1.2 1.2 0 0 0-.18-.05.81.81 0 0 0-.38 0l-.18.05-.16.09-.15.12-.12.15-.09.16a1.2 1.2 0 0 0-.05.18l-.02.19.02.19.05.18.09.17.12.14.15.12c.05.04.11.07.16.09a1.2 1.2 0 0 0 .37.07c.06 0 .13 0 .19-.02l.18-.05a.7.7 0 0 0 .17-.09c.05-.03.1-.07.14-.12a.53.53 0 0 0 .12-.14l.09-.17.05-.18c.02-.06.02-.13.02-.19s0-.12-.02-.19z"/><path id="c" d="M899.9 3457.77l-.05-.18a.65.65 0 0 0-.09-.16c-.03-.06-.07-.1-.12-.15l-.14-.12-.17-.09a1.2 1.2 0 0 0-.18-.05.81.81 0 0 0-.38 0l-.18.05-.16.09-.15.12-.12.15-.09.16a1.2 1.2 0 0 0-.05.18l-.02.19c0 .26.1.5.28.68.05.05.09.09.15.12.05.04.11.07.16.09a1.2 1.2 0 0 0 .37.07c.06 0 .13 0 .19-.02l.18-.05a.7.7 0 0 0 .17-.09c.05-.03.1-.07.14-.12a.95.95 0 0 0 .28-.68c0-.06 0-.12-.02-.19z"/><path id="d" d="M896.65 3458.07v4.59c0 .59-.5 1.07-1.13 1.07h-6.39a1.1 1.1 0 0 1-1.13-1.07v-4.59c0-.59.51-1.07 1.13-1.07h6.39c.63 0 1.13.48 1.13 1.07zm-2.26 1.07h-4.13v2.45h4.13z"/><path id="e" d="M896.65 3467.07v4.59c0 .59-.5 1.07-1.13 1.07h-6.39a1.1 1.1 0 0 1-1.13-1.07v-4.59c0-.59.51-1.07 1.13-1.07h6.39c.63 0 1.13.48 1.13 1.07zm-2.26 1.07h-4.13v2.45h4.13z"/><path id="f" d="M911.65 3458.07v4.59c0 .59-.5 1.07-1.13 1.07h-6.39a1.1 1.1 0 0 1-1.13-1.07v-4.59c0-.59.51-1.07 1.13-1.07h6.39c.63 0 1.13.48 1.13 1.07zm-2.26 1.07h-4.13v2.45h4.13z"/><path id="g" d="M927.65 3458.07v4.59c0 .59-.5 1.07-1.13 1.07h-6.39a1.1 1.1 0 0 1-1.13-1.07v-4.59c0-.59.51-1.07 1.13-1.07h6.39c.63 0 1.13.48 1.13 1.07zm-2.26 1.07h-4.13v2.45h4.13z"/><path id="h" d="M927.65 3467.07v4.59c0 .59-.5 1.07-1.13 1.07h-6.39a1.1 1.1 0 0 1-1.13-1.07v-4.59c0-.59.51-1.07 1.13-1.07h6.39c.63 0 1.13.48 1.13 1.07zm-2.26 1.07h-4.13v2.45h4.13z"/></defs><g transform="translate(-883 -3428)"><use fill="#b4cf3d" xlink:href="#a"/></g><g transform="translate(-883 -3428)"><use fill="#b4cf3d" xlink:href="#b"/></g><g transform="translate(-883 -3428)"><use fill="#b4cf3d" xlink:href="#c"/></g><g transform="translate(-883 -3428)"><use fill="#b4cf3d" xlink:href="#d"/></g><g transform="translate(-883 -3428)"><use fill="#b4cf3d" xlink:href="#e"/></g><g transform="translate(-883 -3428)"><use fill="#b4cf3d" xlink:href="#f"/></g><g transform="translate(-883 -3428)"><use fill="#b4cf3d" xlink:href="#g"/></g><g transform="translate(-883 -3428)"><use fill="#b4cf3d" xlink:href="#h"/></g></svg>