<svg xmlns="http://www.w3.org/2000/svg" xmlns:xlink="http://www.w3.org/1999/xlink" width="39" height="43" viewBox="0 0 39 43"><defs><path id="a" d="M269.64 3459.12c.36 2.17.02 5.9-3.44 7.74.14.79.23 2.16-.47 3.33a3.98 3.98 0 0 1-2.72 1.8c-.64.99-2.84 4.05-5.58 4.01-1.46-.02-2.78-.89-3.93-2.57-1.15 1.69-2.47 2.55-3.93 2.57h-.05c-2.72 0-4.9-3.03-5.53-4.01a3.98 3.98 0 0 1-2.72-1.8 4.93 4.93 0 0 1-.47-3.33c-3.46-1.84-3.8-5.57-3.44-7.74-3.16-2.33-3.55-5.19-3.3-7.22.23-1.79.97-3.21 1.29-3.75-.23-3.73.51-6.53 2.19-8.34a6.16 6.16 0 0 1 3.62-1.92c1.19-2.52 3.2-3 4.43-2.88 2.29-2.15 4.42-2.2 5.82-1.85.92.23 1.64.67 2.09.99a6.27 6.27 0 0 1 2.09-.99c1.4-.35 3.52-.3 5.82 1.85 1.23-.12 3.24.36 4.43 2.88.78.11 2.31.51 3.62 1.92 1.68 1.81 2.42 4.61 2.19 8.34.32.54 1.06 1.96 1.29 3.75.25 2.03-.14 4.89-3.3 7.22zm1.82-7.03c-.24-1.89-1.18-3.32-1.19-3.34a.74.74 0 0 1-.12-.46c.24-3.4-.35-5.9-1.76-7.44a4.53 4.53 0 0 0-3.06-1.52.75.75 0 0 1-.69-.47c-1.1-2.75-3.08-2.38-3.31-2.33a.76.76 0 0 1-.69-.2c-1.54-1.54-3.11-2.11-4.69-1.72a4.63 4.63 0 0 0-1.91 1.02.75.75 0 0 1-.53.22h-.02a.75.75 0 0 1-.53-.22c-.01 0-.78-.75-1.97-1.03-1.56-.37-3.11.21-4.63 1.73a.72.72 0 0 1-.7.19 2.26 2.26 0 0 0-.44-.04c-.69 0-2.03.3-2.86 2.38a.75.75 0 0 1-.69.47c-.07 0-1.71.04-3.06 1.52-1.41 1.54-2 4.04-1.76 7.44a.7.7 0 0 1-.13.46c-.15.23-3.67 5.71 1.88 9.42.27.17.39.49.31.8-.05.2-1.16 4.98 3.05 6.79.36.16.53.56.41.92 0 .02-.51 1.62.18 2.75.36.61 1.05 1 2.02 1.16.22.04.41.17.52.36.58 1 2.54 3.59 4.46 3.56 1.16-.02 2.26-.98 3.28-2.85a.76.76 0 0 1 .66-.38.8.8 0 0 1 .68.38c1.01 1.87 2.12 2.83 3.28 2.85h.03c1.92 0 3.85-2.57 4.43-3.56.11-.19.3-.32.52-.36.98-.16 1.66-.56 2.03-1.17.67-1.12.17-2.72.17-2.74a.74.74 0 0 1 .41-.92c4.23-1.81 3.1-6.59 3.05-6.79a.72.72 0 0 1 .31-.8c2.34-1.57 3.37-3.61 3.06-6.08z"/><path id="b" d="M265.96 3438.48c-.14-.37-.59-.57-1-.44-4.9 1.45-4.96 5.11-4.96 5.26 0 .39.35.7.78.7h.01c.43 0 .78-.31.79-.7 0-.11.08-2.8 3.88-3.93.41-.12.64-.52.5-.89z"/><path id="c" d="M268.86 3458.48c-.24-.34-.68-.41-.99-.15-1.15.96-2.19 1.31-3.09 1.02-1.6-.51-2.41-2.82-2.41-2.84-.14-.41-.55-.61-.91-.46-.36.15-.55.59-.42.99.05.13 1.06 3.07 3.34 3.8.34.11.69.16 1.04.16 1.05 0 2.16-.48 3.3-1.44a.83.83 0 0 0 .14-1.08z"/><path id="d" d="M257.39 3459.22a.87.87 0 0 0-1.15 0 .68.68 0 0 0 0 1.04c2.65 2.4 2.1 4.72 2.07 4.83-.11.39.16.79.59.89l.2.02c.37 0 .7-.22.79-.56.04-.13.84-3.2-2.5-6.22z"/><path id="e" d="M267.96 3452.54a.72.72 0 0 0-.94-.46c-.14.06-3.62 1.35-5.47-1.27a13.35 13.35 0 0 1-1.7-3.46c-.4-1.15-.79-2.24-2.06-2.35-.4-.03-.75.29-.79.71-.03.43.27.81.67.84.3.03.42.22.82 1.35.34.97.82 2.31 1.9 3.84a5.24 5.24 0 0 0 4.5 2.26c1.42 0 2.54-.42 2.63-.46a.8.8 0 0 0 .44-1z"/><path id="f" d="M253.5 3434c-.28 0-.5.33-.5.74v36.52c0 .41.22.74.5.74s.5-.33.5-.74v-36.52c0-.41-.22-.74-.5-.74z"/><path id="g" d="M259 3440.77a.76.76 0 0 0-.77-.77.78.78 0 0 0-.75.79c0 .05.05 4.88-2.32 7.95-.26.34-.2.83.13 1.09a.73.73 0 0 0 1.06-.13c2.7-3.49 2.65-8.71 2.65-8.93z"/><path id="h" d="M261.21 3464c-3.48 0-5.1 4.76-5.17 4.96a.8.8 0 0 0 1.5.5c.36-1.08 1.73-3.88 3.67-3.88a.8.8 0 0 0 0-1.58z"/><path id="i" d="M260.73 3435.15c-.31-.25-.73-.18-.96.16l-1.64 2.47a.83.83 0 0 0 .14 1.07c.13.1.27.15.41.15.21 0 .42-.11.55-.31l1.64-2.47a.83.83 0 0 0-.14-1.07z"/><path id="j" d="M249 3443a3 3 0 0 1-3 3 3 3 0 0 1-3-3 3 3 0 0 1 3-3 3 3 0 0 1 3 3zm-1.5 0a1.5 1.5 0 1 0-3 0 1.5 1.5 0 0 0 3 0z"/><path id="k" d="M244 3452a3 3 0 0 1-3 3 3 3 0 0 1-3-3 3 3 0 0 1 3-3 3 3 0 0 1 3 3zm-1.5 0a1.5 1.5 0 1 0-3 0 1.5 1.5 0 0 0 3 0z"/><path id="l" d="M251 3459a3 3 0 0 1-3 3 3 3 0 0 1-3-3 3 3 0 0 1 3-3 3 3 0 0 1 3 3zm-1.5 0a1.5 1.5 0 1 0-3 0 1.5 1.5 0 0 0 3 0z"/><path id="m" d="M251 3467a3 3 0 0 1-3 3 3 3 0 0 1-3-3 3 3 0 0 1 3-3 3 3 0 0 1 3 3zm-1.5 0a1.5 1.5 0 1 0-3 0 1.5 1.5 0 0 0 3 0z"/><path id="n" d="M245.5 3444c-.28 0-.5.34-.5.75v7.5c0 .41.22.75.5.75s.5-.34.5-.75v-7.5c0-.41-.22-.75-.5-.75z"/><path id="o" d="M248.22 3452h-5.44c-.43 0-.78.22-.78.5s.35.5.78.5h5.44c.43 0 .78-.22.78-.5s-.35-.5-.78-.5z"/><path id="p" d="M248.5 3452c-.28 0-.5.34-.5.75v4.5c0 .41.22.75.5.75s.5-.34.5-.75v-4.5c0-.41-.22-.75-.5-.75z"/><path id="q" d="M248.5 3461c-.28 0-.5.32-.5.71v3.58c0 .39.22.71.5.71s.5-.32.5-.71v-3.58c0-.39-.22-.71-.5-.71z"/></defs><g transform="translate(-234 -3433)"><use fill="#b4cf3d" xlink:href="#a"/></g><g transform="translate(-234 -3433)"><use fill="#b4cf3d" xlink:href="#b"/></g><g transform="translate(-234 -3433)"><use fill="#b4cf3d" xlink:href="#c"/></g><g transform="translate(-234 -3433)"><use fill="#b4cf3d" xlink:href="#d"/></g><g transform="translate(-234 -3433)"><use fill="#b4cf3d" xlink:href="#e"/></g><g transform="translate(-234 -3433)"><use fill="#b4cf3d" xlink:href="#f"/></g><g transform="translate(-234 -3433)"><use fill="#b4cf3d" xlink:href="#g"/></g><g transform="translate(-234 -3433)"><use fill="#b4cf3d" xlink:href="#h"/></g><g transform="translate(-234 -3433)"><use fill="#b4cf3d" xlink:href="#i"/></g><g transform="translate(-234 -3433)"><use fill="#b4cf3d" xlink:href="#j"/></g><g transform="translate(-234 -3433)"><use fill="#b4cf3d" xlink:href="#k"/></g><g transform="translate(-234 -3433)"><use fill="#b4cf3d" xlink:href="#l"/></g><g transform="translate(-234 -3433)"><use fill="#b4cf3d" xlink:href="#m"/></g><g transform="translate(-234 -3433)"><use fill="#b4cf3d" xlink:href="#n"/></g><g transform="translate(-234 -3433)"><use fill="#b4cf3d" xlink:href="#o"/></g><g transform="translate(-234 -3433)"><use fill="#b4cf3d" xlink:href="#p"/></g><g transform="translate(-234 -3433)"><use fill="#b4cf3d" xlink:href="#q"/></g></svg>