<svg xmlns="http://www.w3.org/2000/svg" xmlns:xlink="http://www.w3.org/1999/xlink" width="46" height="46" viewBox="0 0 46 46"><defs><path id="a" d="M1131.35 3448.12a.9.9 0 1 0-.9 1.56.9.9 0 0 0 .9-1.56z"/><path id="b" d="M1118.35 3441.12a.9.9 0 1 0-.9 1.56.9.9 0 0 0 .9-1.56z"/><path id="c" d="M1116.9 3445c-.5 0-.9.4-.9.9s.4.9.9.9.9-.4.9-.9-.4-.9-.9-.9z"/><path id="d" d="M1122.68 3439.45a.9.9 0 1 0-1.56.9.9.9 0 0 0 1.56-.9z"/><path id="e" d="M1119.68 3448.45a.9.9 0 1 0-1.56.9.9.9 0 0 0 1.56-.9z"/><path id="f" d="M1128.68 3451.45a.9.9 0 1 0-1.56.9.9.9 0 0 0 1.56-.9z"/><path id="g" d="M1128.35 3439.12a.9.9 0 1 0-.9 1.56.9.9 0 0 0 .9-1.56z"/><path id="h" d="M1131.68 3441.45a.9.9 0 1 0-.78 1.35.9.9 0 0 0 .78-1.35z"/><path id="i" d="M1131.9 3445c-.5 0-.9.4-.9.9v.01c0 .5.4.89.9.89s.9-.4.9-.89v-.01-.01a.9.9 0 0 0-.9-.89z"/><path id="j" d="M1122.35 3451.12a.9.9 0 1 0-.9 1.56.9.9 0 0 0 .9-1.56z"/><path id="k" d="M1147.97 3459.05c-.5 1.85-1.88 3.79-3.89 5.46a16.87 16.87 0 0 1-6.1 3.26c-.86.23-1.65.34-2.42.34-2.85 0-4.85-1.6-6.76-3.46l-2.9.78v.93c2.67.26 4.75 1.68 5.26 3.55h1.16c.26 0 .5.11.67.3.17.19.25.44.23.69l-.41 3.71h2.07a.9.9 0 0 1 .81 1.3l-1.8 3.59a.88.88 0 0 1-.8.5h-16.18a.88.88 0 0 1-.8-.5l-1.8-3.59a.9.9 0 0 1 .81-1.3h2.07l-.41-3.71a.92.92 0 0 1 .23-.69.9.9 0 0 1 .67-.3h1.15c.51-1.87 2.6-3.29 5.27-3.55v-.93l-2.9-.78c-1.91 1.86-3.91 3.46-6.76 3.46-.77 0-1.56-.11-2.42-.34a16.87 16.87 0 0 1-6.1-3.26c-2.01-1.67-3.39-3.61-3.89-5.46a.93.93 0 0 1 .23-.87c1.91-1.9 5.31-3.04 9.1-3.04 1.39 0 2.74.17 3.92.48 4.2 1.13 5.45 3.95 6.38 7.29l2.44.66v-6.24a11.7 11.7 0 0 1 .9-23.33 11.7 11.7 0 0 1 .9 23.33v6.24l2.44-.66c.93-3.34 2.18-6.16 6.38-7.29 1.18-.31 2.53-.48 3.92-.48 3.79 0 7.19 1.14 9.1 3.04.22.23.31.56.23.87zm-38.16 1.62a.9.9 0 0 1 1.1-.64l8.71 2.34c-.91-2.81-2.04-4.27-4.81-5.01a13.31 13.31 0 0 0-3.45-.42c-3.01 0-5.79.81-7.43 2.15 1.17 3.12 5.24 6.06 8.56 6.94.7.19 1.34.28 1.95.28 1.74 0 3.11-.77 4.72-2.21l-8.71-2.33a.9.9 0 0 1-.64-1.1zm6.76 15.74l.9 1.79h15.06l.9-1.79zm2.11-4.7l.31 2.9h12.02l.31-2.9zm6.32-3.6c-1.91 0-3.59.76-4.22 1.8h8.44c-.63-1.04-2.31-1.8-4.22-1.8zm9.88-22.43a9.89 9.89 0 1 0-10.78 9.84v-5.5a2.71 2.71 0 0 1-1.01-.64.9.9 0 0 1 1.27-1.27c.17.17.4.27.64.27a.9.9 0 0 0 .64-1.54.9.9 0 0 0-.64-.26 2.69 2.69 0 0 1-2.7-2.7c0-1.17.76-2.17 1.8-2.54v-2.85c0-.49.4-.9.9-.9s.9.41.9.9v2.85c.37.13.72.35 1.01.64a.9.9 0 0 1-1.27 1.27.9.9 0 0 0-.64-.27.9.9 0 0 0-.64 1.54c.17.17.4.26.64.26a2.69 2.69 0 0 1 2.7 2.7c0 1.17-.76 2.17-1.8 2.54v5.5a9.88 9.88 0 0 0 8.98-9.84zm11.19 13.41c-1.64-1.34-4.42-2.15-7.43-2.15-1.23 0-2.43.14-3.45.42-2.77.74-3.9 2.2-4.81 5.01l8.71-2.34a.9.9 0 0 1 1.1.64.9.9 0 0 1-.64 1.1l-8.71 2.33c1.61 1.44 2.98 2.21 4.72 2.21a7.4 7.4 0 0 0 1.95-.28c3.32-.88 7.39-3.82 8.56-6.94z"/><path id="l" d="M1143.77 3459.67a.89.89 0 0 0-1.1-.64.9.9 0 0 0-.55.42.9.9 0 0 0 1.01 1.32.87.87 0 0 0 .55-.42.86.86 0 0 0 .09-.68z"/><path id="m" d="M1108.68 3459.45a.87.87 0 0 0-.78-.45.9.9 0 0 0-.23 1.77.9.9 0 0 0 1.1-.63.88.88 0 0 0-.09-.69z"/></defs><g transform="translate(-1102 -3434)"><use fill="#b4cf3d" xlink:href="#a"/></g><g transform="translate(-1102 -3434)"><use fill="#b4cf3d" xlink:href="#b"/></g><g transform="translate(-1102 -3434)"><use fill="#b4cf3d" xlink:href="#c"/></g><g transform="translate(-1102 -3434)"><use fill="#b4cf3d" xlink:href="#d"/></g><g transform="translate(-1102 -3434)"><use fill="#b4cf3d" xlink:href="#e"/></g><g transform="translate(-1102 -3434)"><use fill="#b4cf3d" xlink:href="#f"/></g><g transform="translate(-1102 -3434)"><use fill="#b4cf3d" xlink:href="#g"/></g><g transform="translate(-1102 -3434)"><use fill="#b4cf3d" xlink:href="#h"/></g><g transform="translate(-1102 -3434)"><use fill="#b4cf3d" xlink:href="#i"/></g><g transform="translate(-1102 -3434)"><use fill="#b4cf3d" xlink:href="#j"/></g><g transform="translate(-1102 -3434)"><use fill="#b4cf3d" xlink:href="#k"/></g><g transform="translate(-1102 -3434)"><use fill="#b4cf3d" xlink:href="#l"/></g><g transform="translate(-1102 -3434)"><use fill="#b4cf3d" xlink:href="#m"/></g></svg>