<svg xmlns="http://www.w3.org/2000/svg" xmlns:xlink="http://www.w3.org/1999/xlink" width="53" height="47" viewBox="0 0 53 47"><defs><path id="a" d="M498.31 3472h-48.62c-.93 0-1.69.67-1.69 1.5s.76 1.5 1.69 1.5h48.62c.93 0 1.69-.67 1.69-1.5s-.76-1.5-1.69-1.5z"/><path id="b" d="M477 3473v-27h3v27z"/><path id="c" d="M485 3473v-27h3v27z"/><path id="d" d="M494 3473v-27h3v27z"/><path id="e" d="M468 3473v-27h3v27z"/><path id="f" d="M459 3473v-27h3v27z"/><path id="g" d="M452 3473v-27h3v27z"/><path id="h" d="M501 3439.89v5.48c0 .9-.76 1.63-1.69 1.63H449.7c-.94 0-1.7-.73-1.7-1.63v-5.48c0-.65.4-1.24 1.02-1.5l24.81-10.26c.43-.17.91-.17 1.34 0l24.81 10.26c.62.26 1.02.85 1.02 1.5zm-2.39.11l-1-.04-23.11-9.56-24.11 9.56v4.78h48.22z"/><path id="i" d="M478 3438.5c0 2.48-1.02 3.5-3.5 3.5s-3.5-1.02-3.5-3.5 1.02-3.5 3.5-3.5 3.5 1.02 3.5 3.5zm-2.33 0c0-.64-.53-1.17-1.17-1.17-.64 0-1.17.53-1.17 1.17 0 .64.53 1.17 1.17 1.17.64 0 1.17-.53 1.17-1.17z"/></defs><g transform="translate(-448 -3428)"><use fill="#b4cf3d" xlink:href="#a"/></g><g transform="translate(-448 -3428)"><use fill="#b4cf3d" xlink:href="#b"/></g><g transform="translate(-448 -3428)"><use fill="#b4cf3d" xlink:href="#c"/></g><g transform="translate(-448 -3428)"><use fill="#b4cf3d" xlink:href="#d"/></g><g transform="translate(-448 -3428)"><use fill="#b4cf3d" xlink:href="#e"/></g><g transform="translate(-448 -3428)"><use fill="#b4cf3d" xlink:href="#f"/></g><g transform="translate(-448 -3428)"><use fill="#b4cf3d" xlink:href="#g"/></g><g transform="translate(-448 -3428)"><use fill="#b4cf3d" xlink:href="#h"/></g><g transform="translate(-448 -3428)"><use fill="#b4cf3d" xlink:href="#i"/></g></svg>