<svg xmlns="http://www.w3.org/2000/svg" xmlns:xlink="http://www.w3.org/1999/xlink" width="49" height="60" viewBox="0 0 49 60"><defs><path id="a" d="M554 2314l.68 3"/><path id="b" d="M543 2321l2 2"/><path id="c" d="M537 2332l3 .68"/><path id="d" d="M537 2343.68l3-.68"/><path id="e" d="M544 2354l2-2"/><path id="f" d="M577 2354l-2-2"/><path id="g" d="M584 2343.68l-3-.68"/><path id="h" d="M584 2331l-3 .68"/><path id="i" d="M577 2320l-2 2"/><path id="j" d="M566.68 2314l-.68 3"/><path id="k" d="M558.4 2346c-3.61-.84-5.71-4.85-5.36-7.07.92-6.07 6.76-7.28 8.86-11.93 4.06 2.22 7.06 7.28 5.82 12.31-.83 3.44-5 5.21-6.69 5.77"/><path id="l" d="M559.32 2351c-3.1-7 0-12.99 1.68-18"/><path id="m" d="M566 2369h-2.4l-2.4 2h-2.4l-2.4-2H554"/><path id="n" d="M552 2360h17"/><path id="o" d="M552 2365h17"/><path id="p" d="M567.5 2358v-2.48a10.2 10.2 0 0 1 3-7.12 16.67 16.67 0 0 0 4.5-11.5c0-8.23-6.72-14.9-15-14.9-8.28 0-15 6.67-15 14.9a16.67 16.67 0 0 0 4.5 11.5 10.2 10.2 0 0 1 3 7.12v2.48"/></defs><g transform="translate(-536 -2313)"><use fill="#fff" fill-opacity="0" stroke="#b4cf3d" stroke-miterlimit="50" stroke-width="2.5" xlink:href="#a"/></g><g transform="translate(-536 -2313)"><use fill="#fff" fill-opacity="0" stroke="#b4cf3d" stroke-miterlimit="50" stroke-width="2.5" xlink:href="#b"/></g><g transform="translate(-536 -2313)"><use fill="#fff" fill-opacity="0" stroke="#b4cf3d" stroke-miterlimit="50" stroke-width="2.5" xlink:href="#c"/></g><g transform="translate(-536 -2313)"><use fill="#fff" fill-opacity="0" stroke="#b4cf3d" stroke-miterlimit="50" stroke-width="2.5" xlink:href="#d"/></g><g transform="translate(-536 -2313)"><use fill="#fff" fill-opacity="0" stroke="#b4cf3d" stroke-miterlimit="50" stroke-width="2.5" xlink:href="#e"/></g><g transform="translate(-536 -2313)"><use fill="#fff" fill-opacity="0" stroke="#b4cf3d" stroke-miterlimit="50" stroke-width="2.5" xlink:href="#f"/></g><g transform="translate(-536 -2313)"><use fill="#fff" fill-opacity="0" stroke="#b4cf3d" stroke-miterlimit="50" stroke-width="2.5" xlink:href="#g"/></g><g transform="translate(-536 -2313)"><use fill="#fff" fill-opacity="0" stroke="#b4cf3d" stroke-miterlimit="50" stroke-width="2.5" xlink:href="#h"/></g><g transform="translate(-536 -2313)"><use fill="#fff" fill-opacity="0" stroke="#b4cf3d" stroke-miterlimit="50" stroke-width="2.5" xlink:href="#i"/></g><g transform="translate(-536 -2313)"><use fill="#fff" fill-opacity="0" stroke="#b4cf3d" stroke-miterlimit="50" stroke-width="2.5" xlink:href="#j"/></g><g transform="translate(-536 -2313)"><use fill="#fff" fill-opacity="0" stroke="#b4cf3d" stroke-miterlimit="50" stroke-width="2.5" xlink:href="#k"/></g><g transform="translate(-536 -2313)"><use fill="#fff" fill-opacity="0" stroke="#b4cf3d" stroke-miterlimit="50" stroke-width="2.5" xlink:href="#l"/></g><g transform="translate(-536 -2313)"><use fill="#fff" fill-opacity="0" stroke="#b4cf3d" stroke-miterlimit="50" stroke-width="2.5" xlink:href="#m"/></g><g transform="translate(-536 -2313)"><use fill="#fff" fill-opacity="0" stroke="#b4cf3d" stroke-miterlimit="50" stroke-width="2.5" xlink:href="#n"/></g><g transform="translate(-536 -2313)"><use fill="#fff" fill-opacity="0" stroke="#b4cf3d" stroke-miterlimit="50" stroke-width="2.5" xlink:href="#o"/></g><g transform="translate(-536 -2313)"><use fill="#fff" fill-opacity="0" stroke="#b4cf3d" stroke-miterlimit="50" stroke-width="2.5" xlink:href="#p"/></g></svg>