<svg xmlns="http://www.w3.org/2000/svg" xmlns:xlink="http://www.w3.org/1999/xlink" width="60" height="44" viewBox="0 0 60 44"><defs><path id="a" d="M969.91 2351.1l.71.11v.01l.39.06 1.04.21c.42.15.74.46.9.87l.01.02a1.51 1.51 0 0 1-.53 1.79.99.99 0 0 1-.54.21l-5.66.36-5.62.28c-1.42.01-2.85-.27-4.22-.83a1.24 1.24 0 0 0-.94 2.3c1.65.68 3.37 1.02 5.11 1.02h.15l5.66-.29h.01l5.68-.35a3.53 3.53 0 0 0 1.84-.69 3.98 3.98 0 0 0 1.6-3.9l-.01-.05a16.6 16.6 0 0 1 7.54-4.26c.41-.11.87.06 1.13.41.27.35.3.82.08 1.2a26.1 26.1 0 0 1-21.08 12.85h-.04l-.04.01-.6.07h-.03a23.88 23.88 0 0 1-15.43-3l-2.14-1.19a.08.08 0 0 0-.04-.02l-2.23-1.13-.04-.02-2.28-1.07-.03-.01-1.56-.67v-13.13l.19-.01 1.37.03 1.37.1 1.38.15 1.36.22 1.36.28 1.32.32 1.31.41 1.31.46 1.29.5 1.25.57 1.22.63 1.2.68 1.18.73 1.16.8.06.04.01.01h.01a19.83 19.83 0 0 0 10 2.7h.43l.16.02 1.16.08zm3.65-2.22l.35-.32.36-.3.37-.3.37-.28.78-.54.39-.25.41-.24.41-.23.42-.22.42-.21.43-.2.43-.18.44-.17.45-.17.44-.14.45-.14.47-.13h.02l.52-.15c.43-.11.89.05 1.17.39.08.1.17.23.22.37a18.99 18.99 0 0 0-8.62 4.5c-.32-.3-.69-.54-1.09-.72l.05-.05zm-44.07 8.78v-17.16h6.7l.02.16v17zm57.54-32.58a.59.59 0 0 0-.02-.13l-.04-.18-.01-.03-.04-.16c-.01-.07-.04-.13-.06-.2l-.08-.16-.02-.06-.07-.13a1.5 1.5 0 0 0-.1-.17l-.2-.27a1.01 1.01 0 0 0-.13-.16l-.12-.12-.15-.13-.14-.1-.02-.01-.16-.11-.1-.06-.15-.09-.11-.05-.18-.08-.04-.02-.18-.07-.06-.02-.19-.07-.05-.01-.19-.06a.3.3 0 0 0-.09-.02l-.43-.1-.05-.01-.44-.08-.06-.01-.88-.12-.11-.01-.41-.02-.4-.04h-.06l-.41-.02h-1.33l-.77.04h-.03l-.79.06h-.03l-.79.08-.06.01-.79.12h-.02l-.81.14-.04.01-.39.08-.06.01-.79.2-.06.01-.79.24-.05.02-.39.14-.08.02-1.12.48-.05.02-.38.18a.08.08 0 0 0-.04.02l-.38.2-.02.01-.36.2-.07.04-.32.21-.34.21-.07.04-.67.48-.07.05-.63.51-.04.03-.31.28-.06.05-.58.58-.02.03-.3.31a.43.43 0 0 0-.06.07l-.77.95a.55.55 0 0 1-.07.09l-.23.35-.01.02-.22.34a.16.16 0 0 0-.04.07l-.2.35-.01.03-.2.37-.02.05-.17.35-.18.36-.04.09-.15.38-.04.09-.12.39-.02.07-.2.79-.02.12-.06.39v.02l-.05.38-.01.08-.03.41v.96l.04.81v.05l.02.15-.34.27-.4.31a.22.22 0 0 1-.05.04l-.79.67-.02.02-.75.67-.03.04-.23-.52a.22.22 0 0 1-.03-.05l-.15-.32-.02-.03-.16-.29-.03-.06-.17-.29-.04-.06-.39-.59-.06-.08-.22-.27v-.01l-.24-.3-.03-.03-.23-.28-.07-.07-.85-.84-.03-.03-.29-.28-.06-.05-.69-.57-.02-.02-.75-.59-.05-.04-.41-.29-.43-.31-.02-.02-.46-.31-.02-.02-.46-.31-.49-.33-.04-.03-1.07-.67-.02-.01-.58-.35-.58-.37a1.25 1.25 0 0 0-1.33 2.11l.59.37.03.02.58.35 1.03.65.48.32.01.01.46.31.43.3.43.31h.01l.39.28.61.48-.19.04-.58.09-1.2.11h-1.21l-1.25-.07-1.25-.15-.26-.05-.55-.14-.24-.07-.51-.21-.24-.11-.22-.11-.47-.3-.19-.15-.71-.6-.41-.41-.39-.44-.76-.96-.34-.48-.33-.49-.13-.24-.02-.02-.16-.27-.13-.25-.31-.61-.14-.29-.11-.28-.1-.27-.08-.27-.05-.24-.01-.07-.01-.05v-.04l.01-.09.02-.07.03-.03.09-.08.23-.11.08-.04.25-.09.25-.07.64-.14.32-.05.34-.03 1.53-.08h1.08l.32.02h.37l1.26.07.57.06.58.07.57.1 1.21.22.58.15.6.17.58.18.25.09.27.12.25.12.26.13.23.14.22.14.24.17.19.14.18.17.18.2.04.04.18.18.13.17.17.23.14.23.13.21.22.51.09.23.18.55.15.6a1.24 1.24 0 1 0 2.41-.6l-.15-.64-.02-.06-.2-.64-.03-.09-.12-.29-.02-.04-.12-.29-.01-.02-.14-.3-.05-.11-.17-.29-.03-.05-.18-.28-.04-.05-.19-.28-.03-.03-.2-.26-.1-.12-.22-.22-.2-.21-.07-.08-.26-.23-.09-.08-.25-.19-.04-.03-.27-.2-.05-.03-.28-.18a.2.2 0 0 1-.06-.04l-.28-.15-.02-.02-.3-.15-.06-.04-.3-.13-.02-.02-.32-.13-.06-.03-.32-.12-.06-.02-.63-.2-.04-.01-.63-.18-.04-.01-.63-.15a.19.19 0 0 0-.07-.02l-1.26-.24h-.03l-.62-.1-.04-.01-.61-.08h-.04l-.61-.06h-.04l-1.33-.08h-.37l-.32-.02h-1.28l-1.6.08h-.06l-.4.04-.07.01-.38.06-.07.01-.38.08h-.01l-.36.08a.19.19 0 0 1-.08.02l-.33.1-.09.03-.31.12-.06.02-.14.06a.08.08 0 0 1-.05.02l-.14.07-.03.02-.13.06-.06.04-.12.07-.11.07-.12.09-.05.04-.12.1-.09.08-.1.1-.09.1-.08.1-.04.06-.07.1-.07.1-.06.11-.08.16-.05.12-.04.11-.03.11-.01.05-.04.15-.02.12-.02.14-.01.06-.01.14-.01.11v.15l.01.11.01.15.01.09.03.16.01.09.08.31.01.07.1.33.02.07.12.33.02.06.14.34.03.05.15.34.02.02.31.64.02.03.16.29.03.06.17.28.15.27.04.07.36.53.02.03.37.53.05.06.81 1.01.04.04.43.5.05.05.55.55.77.65.05.04.25.19.09.06.55.36.09.05.3.16.06.03.29.14.07.02.59.24.09.03.32.1.07.02.63.16.08.02.34.06a.2.2 0 0 1 .07.01l1.32.16h.07l1.33.08h1.48l1.31-.12.07-.01.65-.1.07-.01.66-.14.04-.01.63-.16.04-.01.46-.13.28.36.35.52.15.25.13.25.14.27.25.56.1.3.01.02.1.27.08.28.09.31.15.78.1.59.09.72v.01l.09.71.07.68.08 1.43.02.72v1.59c-.81-.32-1.59-.7-2.33-1.13l-1.15-.79-.04-.03-1.22-.76-.04-.02-1.25-.71-.04-.02-1.27-.66-.06-.03-1.32-.6-.06-.02-1.33-.52-.04-.02-1.36-.47-.04-.02-1.37-.42-.07-.02-1.39-.34-.04-.01-1.4-.28-.05-.01-1.42-.24-.07-.01-1.44-.15h-.04l-1.42-.11h-.06l-1.43-.03h-.34a2.48 2.48 0 0 0-2.35-1.76h-.01-6.77a2.47 2.47 0 0 0-2.45 2.48v17.19a2.48 2.48 0 0 0 2.46 2.47h6.76c1.22 0 2.24-.89 2.44-2.05l.6.25 2.24 1.05 2.19 1.11 2.18 1.21.05.02a26.46 26.46 0 0 0 16.87 3.24l.55-.06c4.68-.27 9.27-1.7 13.27-4.14a28.9 28.9 0 0 0 9.78-9.94 3.57 3.57 0 0 0-.96-4.68 3.67 3.67 0 0 0-4.57-3.86h-.01l-.02.01-.53.15-.49.13-.03.01-.48.14-.04.02-.48.16-.03.01-.47.17-.03.01-.47.18-.04.02-.47.2-.02.01-.46.21-.04.02-.45.22-.02.01-.45.24-.03.01-.44.25-.03.02-.43.26-.04.01-.42.28a.08.08 0 0 0-.04.02l-.41.28-.02.01-.41.3-.04.02-.4.31-.03.02-.39.32-.03.02-.38.32-.03.02-.37.34-.03.02-.37.35-.02.03-.36.35-.02.03-.35.37-.03.02-.33.38-.02.02-.04.04-.05-.01h-.07l-1.17-.12-.04-.01-1.18-.08h-.03l-.06-.01-.29-.01h-.04c-1.43.02-2.86-.12-4.23-.44v-2.41l-.02-.75v-.03l-.08-1.48-.01-.07-.08-.73v-.02l-.09-.71-.09-.76-.01-.05-.04-.28.16-.26.21-.3.26-.29.3-.33.7-.62.75-.64.39-.29.03-.03.4-.32.41-.32.42-.3.01-.01.44-.33.44-.3.01-.01.46-.33.97-.65.5-.33.03-.02.49-.34.51-.32.01-.01.55-.35.01-.01.55-.36.57-.34.03-.02.58-.37.61-.37.01-.01.62-.39.64-.39.03-.01.64-.41.67-.4.02-.02.69-.43 1.45-.88a1.25 1.25 0 0 0-1.29-2.13l-1.47.89-.01.01-.68.43-.68.4-.03.02-.64.41-.64.39-.01.01-.63.39-.61.37-.01.01-.58.37-.58.34-.04.03-.57.37-.55.35-.52.33-.05.03-.5.35-.5.33-.02.01-.95.65v-.07l.02-.33.05-.33.05-.32.17-.7.1-.3.11-.3.16-.32.01-.02.34-.68.18-.31.18-.29.2-.3.71-.87.25-.27.53-.52.27-.24.58-.47.6-.43.32-.19.03-.02.3-.19.31-.17.33-.18.33-.16 1.07-.44.33-.12.73-.22.73-.18.35-.07.78-.14.75-.11.74-.07.76-.06.73-.04h1.14l.36.02.4.04h.06l.38.02.38.05.43.06.37.06.37.09.13.04.15.05.13.05.1.04.05.03.14.1.07.09.02.06.03.13.01.05v.24l-.03.28-.06.31-.05.17v.01l-.1.4-.14.37-.15.39-.19.41-.42.84-.43.78-.22.36-.46.73-.21.31-.23.3-.03.04-.21.3-.22.27-.74.86-.22.24-.52.52-.52.48-.56.49-.59.47-.6.47-.63.44-.3.2-.32.19-.31.17-.32.16-.32.15-.31.12-.32.11-.7.18-.31.06-.72.07-.35.02h-.36l-.35-.02-.75-.07-.34-.06-.75-.14-.76-.18a1.25 1.25 0 0 0-1.49.94c-.15.67.26 1.34.94 1.49l.76.18.04.01.39.08h.02l.41.08.05.01.39.06h.07l.8.08.07.01.41.02h.54l.41-.02.07-.01.8-.08.13-.01.39-.08.04-.01.39-.09.04-.01.4-.11.07-.02.39-.13.05-.02.38-.15.09-.03.37-.18.03-.01.35-.18.05-.03.36-.19.04-.03.36-.22.02-.01.34-.22.04-.03.67-.47.05-.04.63-.49.02-.01.61-.5.03-.03.59-.51.04-.03.55-.51.03-.03.59-.59.25-.27.03-.04.77-.88.03-.03.25-.32a.18.18 0 0 0 .05-.07l.23-.31.24-.32.05-.07.23-.35.02-.03.47-.75.02-.02.24-.4.02-.04.45-.83.03-.04.43-.87.01-.02.22-.45a.69.69 0 0 1 .03-.08l.18-.46.01-.03.16-.43.03-.11.12-.45.06-.21.02-.08.04-.2v-.02l.04-.22.01-.1.04-.39.01-.13v-.37l-.01-.14z"/></defs><g transform="translate(-927 -2322)"><use fill="#b4cf3d" xlink:href="#a"/></g></svg>