<svg xmlns="http://www.w3.org/2000/svg" xmlns:xlink="http://www.w3.org/1999/xlink" width="55" height="58" viewBox="0 0 55 58"><defs><path id="a" d="M1347.46 2351a19.32 19.32 0 0 1 1.64-24.11 18.16 18.16 0 0 1 23.41-2.87 19.2 19.2 0 0 1 7.14 23.03"/><path id="b" d="M1350 2367c.44-.45.88-1.17 2.28-1.17h15.93c1.26 0 8.22-7.13 9.1-8.16.89-1.04 4.64-6.82 5.69-9.34-.66-.92-2.44-1.67-4.55-1.17-2.01.48-3.2 1.96-4.56 4.67l-5.21 2.78"/><path id="c" d="M1356.24 2359h9.28c4.64 0 4.64-5.71 0-5.71h-6.14c-.95 0-2.78-2.29-4.31-2.29h-5.79c-1.57 0-3.51 1.25-4.64 2.29l-4.64 4.57"/><path id="d" d="M1346.24 2374.9l-14.14-14.14 5.66-5.66 14.14 14.14z"/><path id="e" d="M1338 2361l3 3"/><path id="f" d="M1381 2340h-7.06l-4.7-4.73H1361v-2.36c0-.94.37-1.84 1.03-2.51a3.58 3.58 0 0 1 2.5-1.04h3.53l2.35-2.36h4.71"/><path id="g" d="M1366.91 2351v-1.22l-2.36-2.45h-2.37a1.2 1.2 0 0 1-1.18-1.22v-2.44c0-.98.37-1.91 1.04-2.6a3.49 3.49 0 0 1 2.51-1.07h4.73l4.72 4.89v2.44"/><path id="h" d="M1344 2341h2.25l2.25-2.4v-1.2l2.25-2.4h2.25v-3.6c0-1.33-1.01-2.4-2.25-2.4h-3.38"/><path id="i" d="M1350 2348l2-2v-1l-2-2h-1l-2 2"/></defs><g transform="translate(-1330 -2319)"><use fill="#fff" fill-opacity="0" stroke="#b4cf3d" stroke-linejoin="round" stroke-miterlimit="50" stroke-width="2.5" xlink:href="#a"/></g><g transform="translate(-1330 -2319)"><use fill="#fff" fill-opacity="0" stroke="#b4cf3d" stroke-linejoin="round" stroke-miterlimit="50" stroke-width="2.5" xlink:href="#b"/></g><g transform="translate(-1330 -2319)"><use fill="#fff" fill-opacity="0" stroke="#b4cf3d" stroke-linejoin="round" stroke-miterlimit="50" stroke-width="2.5" xlink:href="#c"/></g><g transform="translate(-1330 -2319)"><use fill="#fff" fill-opacity="0" stroke="#b4cf3d" stroke-linejoin="round" stroke-miterlimit="50" stroke-width="2.5" xlink:href="#d"/></g><g transform="translate(-1330 -2319)"><use fill="#fff" fill-opacity="0" stroke="#b4cf3d" stroke-linejoin="round" stroke-miterlimit="50" stroke-width="2.5" xlink:href="#e"/></g><g transform="translate(-1330 -2319)"><use fill="#fff" fill-opacity="0" stroke="#b4cf3d" stroke-linejoin="round" stroke-miterlimit="50" stroke-width="2.5" xlink:href="#f"/></g><g transform="translate(-1330 -2319)"><use fill="#fff" fill-opacity="0" stroke="#b4cf3d" stroke-linejoin="round" stroke-miterlimit="50" stroke-width="2.5" xlink:href="#g"/></g><g transform="translate(-1330 -2319)"><use fill="#fff" fill-opacity="0" stroke="#b4cf3d" stroke-linejoin="round" stroke-miterlimit="50" stroke-width="2.5" xlink:href="#h"/></g><g transform="translate(-1330 -2319)"><use fill="#fff" fill-opacity="0" stroke="#b4cf3d" stroke-linejoin="round" stroke-miterlimit="50" stroke-width="2.5" xlink:href="#i"/></g></svg>