<svg xmlns="http://www.w3.org/2000/svg" xmlns:xlink="http://www.w3.org/1999/xlink" width="17" height="16" viewBox="0 0 17 16"><defs><path id="a" d="M169 8304.87v6.24h-3.64v-5.82c0-1.46-.53-2.46-1.85-2.46a2 2 0 0 0-1.87 1.33c-.1.23-.12.55-.12.88v6.07h-3.64s.04-9.85 0-10.87h3.64v1.54l-.02.03h.02v-.03a3.62 3.62 0 0 1 3.28-1.8c2.4 0 4.2 1.56 4.2 4.89zm-12.9-7.99c0 1.04-.79 1.88-2.06 1.88h-.03c-1.22 0-2.01-.84-2.01-1.88 0-1.07.82-1.88 2.06-1.88 1.25 0 2.02.81 2.04 1.88zm-3.88 3.36h3.64v10.87h-3.64z"/></defs><g transform="translate(-152 -8295)"><use fill="#fff" xlink:href="#a"/></g></svg>