<svg xmlns="http://www.w3.org/2000/svg" xmlns:xlink="http://www.w3.org/1999/xlink" width="452" height="960" viewBox="0 0 452 960"><defs><path id="a" d="M334.92 3151.53c10.09 15.67 22.08 35.69 29.92 48.87 6.12 8.6 12.33 8.7 18.73-1.23 11.79-17.48 30.72-46 41.48-63.96 16.33-27.41 40.08-70.19 31.79-113.5-8.29-43.36-39.23-79.53-48.32-93.99-6.35-10.06-24.08-31.32-34.14-43.11-.48-.56-.98-1.13-1.43-1.69-3.72-4.27-7.04-3.72-9.96.76-.42.83-.92 1.61-1.35 2.44-46.37 81.56-99.97 109.78-55.19 214.06 9.09 21.17 20.15 38.35 28.47 51.35zm-13.37 42.42c-20.82-28.35-50.49-41.63-80.6-55.45-24.89-11.46-59.8-26.63-73.5-53.08-1.21-2.45-3.97-7.84-5.93-.08-13.47 53.98-19.75 104.44.28 157.87 15.66 41.8 42.99 66.33 87.21 90.83 33.52 18.54 72.65 24.31 103.06 59.1 1.93 2.64 3.21 2.19 3.97-.55 14.88-57.5 4.04-145.96-34.49-198.64zm0 221.56c-20.82-28.37-50.49-41.63-80.6-55.5-24.89-11.46-59.8-26.58-73.5-53.11-1.21-2.39-3.97-7.76-5.93-.05-13.47 53.98-19.75 104.49.28 157.87 15.66 41.81 42.99 66.39 87.21 90.82 33.52 18.57 72.65 24.38 103.06 59.12 1.93 2.67 3.21 2.2 3.97-.5 14.88-57.52 4.04-145.99-34.49-198.65zm0 223.54c-20.82-28.4-50.49-41.63-80.6-55.48-24.89-11.45-59.8-26.63-73.5-53.08-1.21-2.4-3.97-7.82-5.93-.05-13.47 53.98-19.75 104.42.28 157.88 15.66 41.78 42.99 66.33 87.21 90.79 33.52 18.59 72.65 24.39 103.06 59.13 1.93 2.64 3.21 2.19 3.97-.55 14.88-57.53 4.04-145.98-34.49-198.64zm71.56-246.46c.83 2.74 2.06 3.19 4.02.55 30.36-34.79 69.54-40.56 103.07-59.1 44.22-24.5 71.57-49.03 87.21-90.83 19.98-53.43 13.7-103.89.25-157.87-1.98-7.76-4.67-2.37-5.87.08-13.78 26.45-48.69 41.62-73.59 53.08-30.11 13.82-59.75 27.1-80.58 55.45-38.55 52.68-49.34 141.14-34.51 198.64zm0 221.57c.83 2.7 2.06 3.17 4.02.5 30.36-34.74 69.54-40.55 103.07-59.12 44.22-24.43 71.57-49.01 87.21-90.82 19.98-53.38 13.7-103.89.25-157.87-1.98-7.71-4.67-2.34-5.87.05-13.78 26.53-48.69 41.65-73.59 53.11-30.11 13.87-59.75 27.13-80.58 55.5-38.55 52.66-49.34 141.13-34.51 198.65zm0 223.53c.83 2.74 2.06 3.19 4.02.55 30.36-34.74 69.54-40.54 103.07-59.13 44.22-24.46 71.57-49.01 87.21-90.79 19.98-53.46 13.7-103.9.25-157.88-1.98-7.77-4.67-2.35-5.87.05-13.78 26.45-48.69 41.63-73.59 53.08-30.11 13.85-59.75 27.08-80.58 55.48-38.55 52.66-49.34 141.11-34.51 198.64z"/></defs><g opacity=".1" transform="translate(-149 -2880)"><use fill="#a8a8a8" xlink:href="#a"/></g></svg>