<svg xmlns="http://www.w3.org/2000/svg" xmlns:xlink="http://www.w3.org/1999/xlink" width="139" height="400" viewBox="0 0 139 400"><defs><path id="a" d="M1216.51 3399.34a809.5 809.5 0 0 1 12.22 20.94c2.49 3.69 5.03 3.73 7.65-.53 4.81-7.48 12.54-19.71 16.94-27.4 6.67-11.75 16.37-30.08 12.98-48.63-3.38-18.58-16.02-34.08-19.73-40.27-2.6-4.32-9.84-13.42-13.95-18.48-.19-.23-.4-.48-.58-.72-1.52-1.83-2.88-1.59-4.07.33-.17.35-.38.69-.55 1.04-18.94 34.95-40.83 47.04-22.54 91.72 3.71 9.07 8.23 16.43 11.63 22zm-5.18 17.79c-8.49-12.11-20.58-17.79-32.85-23.69-10.15-4.9-24.38-11.38-29.96-22.68-.49-1.05-1.62-3.35-2.42-.04-5.49 23.07-8.05 44.63.12 67.46 6.38 17.86 17.52 28.34 35.54 38.82 13.67 7.92 29.61 10.38 42.01 25.25.79 1.13 1.31.93 1.62-.24 6.06-24.57 1.64-62.37-14.06-84.88zm0 95.01c-8.49-12.12-20.58-17.78-32.85-23.71-10.15-4.9-24.38-11.36-29.96-22.7-.49-1.02-1.62-3.31-2.42-.02-5.49 23.07-8.05 44.65.12 67.46 6.38 17.86 17.52 28.37 35.54 38.81 13.67 7.93 29.61 10.42 42.01 25.26.79 1.14 1.31.94 1.62-.21 6.06-24.58 1.64-62.39-14.06-84.89zm0 95.99c-8.49-12.13-20.58-17.78-32.85-23.7-10.15-4.9-24.38-11.38-29.96-22.69-.49-1.02-1.62-3.33-2.42-.02-5.49 23.07-8.05 44.62.12 67.46 6.38 17.86 17.52 28.35 35.54 38.8 13.67 7.95 29.61 10.42 42.01 25.27.79 1.13 1.31.93 1.62-.24 6.06-24.58 1.64-62.37-14.06-84.88zm28.27-106.12c.34 1.17.84 1.37 1.64.24 12.38-14.87 28.35-17.33 42.01-25.25 18.03-10.48 29.18-20.96 35.55-38.82 8.14-22.83 5.58-44.39.1-67.46-.81-3.31-1.9-1.01-2.39.04-5.62 11.3-19.85 17.78-29.99 22.68-12.28 5.9-24.36 11.58-32.85 23.69-15.71 22.51-20.11 60.31-14.07 84.88zm0 95.02c.34 1.15.84 1.35 1.64.21 12.38-14.84 28.35-17.33 42.01-25.26 18.03-10.44 29.18-20.95 35.55-38.81 8.14-22.81 5.58-44.39.1-67.46-.81-3.29-1.9-1-2.39.02-5.62 11.34-19.85 17.8-29.99 22.7-12.28 5.93-24.36 11.59-32.85 23.71-15.71 22.5-20.11 60.31-14.07 84.89zm0 95.98c.34 1.17.84 1.37 1.64.24 12.38-14.85 28.35-17.32 42.01-25.27 18.03-10.45 29.18-20.94 35.55-38.8 8.14-22.84 5.58-44.39.1-67.46-.81-3.31-1.9-1-2.39.02-5.62 11.31-19.85 17.79-29.99 22.69-12.28 5.92-24.36 11.57-32.85 23.7-15.71 22.51-20.11 60.3-14.07 84.88z"/></defs><g opacity=".1" transform="translate(-1141 -3283)"><use fill="#fff" xlink:href="#a"/></g></svg>