<svg xmlns="http://www.w3.org/2000/svg" xmlns:xlink="http://www.w3.org/1999/xlink" width="58" height="200" viewBox="0 0 58 200"><defs><path id="a" d="M862.68 7827.6c2.5 3.84 5.46 8.75 7.39 11.98 1.52 2.11 3.05 2.14 4.63-.3a425.9 425.9 0 0 0 10.25-15.69c4.03-6.72 9.9-17.21 7.85-27.84-2.05-10.63-9.69-19.5-11.94-23.05-1.56-2.46-5.94-7.68-8.43-10.57l-.35-.41c-.92-1.05-1.74-.92-2.46.18l-.34.6c-11.45 20-24.69 26.93-13.63 52.5 2.25 5.19 4.98 9.41 7.03 12.6zm-3.26 10.4c-5.12-7-12.42-10.29-19.82-13.7-6.12-2.83-14.7-6.59-18.07-13.12-.29-.61-.97-1.94-1.45-.02-3.31 13.34-4.86 25.81.07 39.02 3.85 10.33 10.56 16.4 21.43 22.45 8.24 4.59 17.86 6.01 25.34 14.61.47.65.79.54.97-.14 3.66-14.21.99-36.08-8.47-49.1zm0 54.4c-5.12-7.02-12.42-10.29-19.82-13.72-6.12-2.83-14.7-6.57-18.07-13.13-.29-.59-.97-1.92-1.45-.01-3.31 13.34-4.86 25.83.07 39.02 3.85 10.33 10.56 16.41 21.43 22.45 8.24 4.59 17.86 6.03 25.34 14.61.47.66.79.55.97-.12 3.66-14.22.99-36.09-8.47-49.1zm0 54.38c-5.12-7.02-12.42-10.29-19.82-13.71-6.12-2.83-14.7-6.59-18.07-13.12-.29-.6-.97-1.93-1.45-.02-3.31 13.35-4.86 25.81.07 39.03 3.85 10.32 10.56 16.39 21.43 22.44 8.24 4.59 17.86 6.02 25.34 14.61.47.65.79.54.97-.14 3.66-14.21.99-36.08-8.47-49.09zm17.69-59.68c.2.68.5.79.98.14 7.47-8.6 17.1-10.02 25.34-14.61 10.87-6.05 17.59-12.12 21.43-22.45 4.91-13.21 3.37-25.68.07-39.02-.49-1.92-1.15-.59-1.45.02-3.38 6.53-11.97 10.29-18.08 13.12-7.41 3.41-14.69 6.7-19.81 13.7-9.48 13.02-12.13 34.89-8.48 49.1zm0 54.4c.2.67.5.78.98.12 7.47-8.58 17.1-10.02 25.34-14.61 10.87-6.04 17.59-12.12 21.43-22.45 4.91-13.19 3.37-25.68.07-39.02-.49-1.91-1.15-.58-1.45.01-3.38 6.56-11.97 10.3-18.08 13.13-7.41 3.43-14.69 6.7-19.81 13.72-9.48 13.01-12.13 34.88-8.48 49.1zm0 54.37c.2.68.5.79.98.14 7.47-8.59 17.1-10.02 25.34-14.61 10.87-6.05 17.59-12.12 21.43-22.44 4.91-13.22 3.37-25.68.07-39.03-.49-1.91-1.15-.58-1.45.02-3.38 6.53-11.97 10.29-18.08 13.12-7.41 3.42-14.69 6.69-19.81 13.71-9.48 13.01-12.13 34.88-8.48 49.09z"/></defs><g opacity=".3" transform="translate(-817 -7779)"><use fill="#fff" xlink:href="#a"/></g></svg>