<?xml version="1.0" standalone="no"?>
<!DOCTYPE svg PUBLIC "-//W3C//DTD SVG 20010904//EN"
 "http://www.w3.org/TR/2001/REC-SVG-20010904/DTD/svg10.dtd">
<svg version="1.0" xmlns="http://www.w3.org/2000/svg"
 width="260.000000pt" height="260.000000pt" viewBox="0 0 260.000000 260.000000"
 preserveAspectRatio="xMidYMid meet">
<metadata>
Created by potrace 1.11, written by Peter Selinger 2001-2013
</metadata>
<g transform="translate(0.000000,260.000000) scale(0.100000,-0.100000)"
fill="#000000" stroke="none">
<path d="M1205 2355 c-43 -65 -85 -140 -95 -169 -26 -75 -18 -154 26 -253 23
-53 140 -249 153 -257 12 -8 26 7 69 70 188 280 191 383 14 620 -92 122 -79
123 -167 -11z"/>
<path d="M775 1948 c-27 -115 -30 -236 -8 -312 43 -148 121 -227 302 -307 47
-21 107 -54 133 -73 34 -25 50 -31 55 -23 4 7 8 57 10 112 3 161 -47 314 -129
395 -20 20 -93 64 -162 99 -79 39 -137 75 -155 97 -36 40 -39 41 -46 12z"/>
<path d="M1778 1936 c-18 -21 -73 -56 -153 -97 -74 -37 -142 -79 -165 -103
-84 -82 -130 -229 -126 -398 1 -59 5 -110 9 -114 3 -3 23 7 44 24 42 32 53 38
193 106 193 93 273 221 265 426 -3 87 -21 191 -33 189 -4 0 -19 -15 -34 -33z"/>
<path d="M774 1403 c-4 -21 -9 -47 -12 -58 -2 -11 -6 -56 -8 -100 -8 -211 87
-358 289 -444 105 -45 139 -63 171 -92 45 -39 50 -30 53 91 3 142 -26 256 -91
353 -39 59 -90 94 -221 157 -60 29 -104 57 -132 87 l-42 45 -7 -39z"/>
<path d="M1779 1397 c-17 -21 -68 -54 -150 -95 -68 -34 -135 -72 -150 -84
-100 -90 -159 -271 -146 -450 4 -44 9 -83 11 -86 3 -2 24 12 48 31 24 20 81
52 126 71 92 39 173 89 216 132 107 108 138 275 91 492 -7 30 -15 28 -46 -11z"/>
<path d="M776 863 c-15 -66 -17 -82 -22 -153 -7 -84 12 -183 47 -251 42 -84
135 -156 279 -219 65 -28 124 -62 140 -80 3 -3 12 -10 20 -17 21 -16 25 11 24
147 -1 113 -17 188 -60 272 -43 85 -84 120 -220 189 -83 42 -137 76 -160 101
-19 21 -36 38 -38 38 -3 0 -7 -12 -10 -27z"/>
<path d="M1800 881 c0 -23 -71 -73 -185 -130 -168 -85 -219 -143 -261 -299
-19 -70 -28 -222 -17 -279 l8 -43 35 30 c32 28 83 56 201 108 119 54 213 152
245 257 19 62 26 194 13 260 -5 28 -11 59 -14 70 -2 11 -4 23 -4 28 -1 10 -21
9 -21 -2z"/>
</g>
</svg>
